<svg width="90" height="90" viewBox="0 0 90 90" fill="none" xmlns="http://www.w3.org/2000/svg">
<path d="M69.7909 90H76.5818C80.0182 90 82.8409 87.3806 83.25 84.0246L90 16.5757H69.5455V0H61.4864V16.5757H41.1545L42.3818 26.1528C49.3773 28.0764 55.9227 31.5553 59.85 35.4025C65.7409 41.2142 69.7909 47.2306 69.7909 57.0532V90ZM0 85.9072V81.8554H61.4864V85.9072C61.4864 88.1583 59.6455 90 57.3545 90H4.13182C1.84091 90 0 88.1583 0 85.9072ZM61.4864 57.2578C61.4864 24.5157 0 24.5157 0 57.2578H61.4864ZM0.0818181 65.4843H61.4455V73.6699H0.0818181V65.4843Z" fill="white"/>
</svg>
